<?xml version="1.0" encoding="utf-8"?>
<!-- Generator: Adobe Illustrator 19.2.1, SVG Export Plug-In . SVG Version: 6.00 Build 0)  -->
<svg version="1.1" id="Layer_1" xmlns="http://www.w3.org/2000/svg" xmlns:xlink="http://www.w3.org/1999/xlink" x="0px" y="0px"
	 viewBox="0 0 128.9 88.4" enable-background="new 0 0 128.9 88.4" xml:space="preserve">
<path fill="#ABC7C5" d="M70.5,0.8l-50,25.9c-1.8,1-2.5,3.2-1.6,5c0.4,0.7,0.9,1.2,1.6,1.6l51.2,26.5c1.1,0.6,2.4,0.5,3.5-0.1
	L127,30.9c1.8-1,2.5-3.3,1.4-5.1c-0.4-0.7-1-1.2-1.7-1.6L76.6,0.6C74.6-0.3,72.4-0.2,70.5,0.8z"/>
<path fill="#ABC7C5" d="M71.9,30.4L20.6,53.7c-1.8,1-2.5,3.2-1.6,5c0.4,0.7,0.9,1.2,1.6,1.6l48.1,26.9c3,1.6,6.6,1.5,9.6-0.2
	L127,57.9c1.8-1,2.5-3.3,1.4-5.1c-0.4-0.7-1-1.2-1.7-1.6l-51.6-21C74.2,29.8,72.9,29.8,71.9,30.4z"/>
<polygon fill="#ABC7C5" points="18.5,30 18.5,57 128.9,54.8 128.9,27.6 "/>
<path fill="#85A7A6" d="M128.9,27.6l-55.2,1.2v59.6c1.6-0.1,3.1-0.5,4.5-1.3L127,58c1.1-0.6,1.9-1.8,1.9-3.1l0,0V27.6L128.9,27.6z"
	/>
<path fill="#CDE0DD" d="M69.7,1.2L20.6,26.7c-1.8,1-2.5,3.2-1.6,5c0.4,0.7,0.9,1.2,1.6,1.6l48.1,24.9c3,1.6,6.6,1.5,9.6-0.2
	L127,30.9c1.8-1,2.5-3.3,1.4-5.1c-0.4-0.7-1-1.2-1.7-1.6L77.4,1.1C75-0.1,72.1,0,69.7,1.2z"/>
<path fill="#265265" d="M91.5,69.1c0,1.6-1.1,3-2.6,3.4c-1.4,0.3-2.6-0.8-2.6-2.5c0-1.6,1-3,2.6-3.4c1.3-0.2,2.4,0.7,2.6,2
	C91.5,68.7,91.6,68.9,91.5,69.1z"/>
<path fill="#EDF7F9" d="M99.7,64.4c0,1.6-1.1,3-2.6,3.4c-1.4,0.3-2.6-0.8-2.6-2.5c0-1.6,1-3,2.6-3.4c1.3-0.2,2.4,0.7,2.6,1.9
	C99.7,64.1,99.7,64.3,99.7,64.4z"/>
<path fill="#265265" d="M108,59.9c0,1.6-1.1,3-2.6,3.4c-1.4,0.3-2.6-0.8-2.6-2.5c0-1.6,1-3,2.6-3.4c1.3-0.2,2.4,0.7,2.6,1.9
	C108,59.5,108,59.7,108,59.9z"/>
<g>
	<g>
		<g>
			<g>
				<defs>
					<path id="SVGID_1_" d="M26.6,52.5l4.3-1.7c-0.1,0.1-0.2,0.2-0.2,0.3c0,0.3,0.1,0.5,0.3,0.7l-4.3,1.7c-0.2-0.2-0.3-0.4-0.3-0.7
						C26.4,52.8,26.4,52.6,26.6,52.5z"/>
				</defs>
				<clipPath id="SVGID_2_">
					<use xlink:href="#SVGID_1_"  overflow="visible"/>
				</clipPath>
				<g clip-path="url(#SVGID_2_)">
					<g>
						<path fill="#8D9598" d="M26.6,52.5l4.3-1.7c-0.1,0-0.1,0.1-0.1,0.2l-4.3,1.7C26.5,52.6,26.5,52.6,26.6,52.5"/>
						<path fill="#91999C" d="M26.4,52.7l4.3-1.7v0.1L26.4,52.7L26.4,52.7"/>
						<path fill="#949DA0" d="M26.4,52.7l4.3-1.7l0,0L26.4,52.7L26.4,52.7"/>
						<path fill="#98A1A4" d="M26.4,52.8l4.3-1.7l0,0L26.4,52.8L26.4,52.8"/>
						<path fill="#9CA5A8" d="M26.4,52.8l4.3-1.7l0,0L26.4,52.8L26.4,52.8"/>
						<path fill="#A0A9AC" d="M26.4,52.9l4.3-1.7l0,0l0,0L26.4,52.9L26.4,52.9L26.4,52.9"/>
						<path fill="#A4ADB0" d="M26.4,52.9l4.3-1.7l0,0L26.4,52.9L26.4,52.9"/>
						<path fill="#A8B1B4" d="M26.4,52.9l4.3-1.7l0,0L26.4,52.9L26.4,52.9"/>
						<path fill="#ABB5B8" d="M26.4,53l4.3-1.7v0.1L26.4,53L26.4,53"/>
						<path fill="#AFB9BC" d="M26.4,53.1l4.3-1.7v0.1L26.4,53.1L26.4,53.1"/>
						<path fill="#B3BDC0" d="M26.4,53.1l4.3-1.7v0.1L26.4,53.1L26.4,53.1"/>
						<path fill="#B7C1C4" d="M26.4,53.2l4.3-1.7l0.1,0.1l-4.3,1.7L26.4,53.2"/>
						<path fill="#BBC5C8" d="M26.5,53.3l4.3-1.7v0.1L26.5,53.3L26.5,53.3"/>
						<path fill="#B7C1C4" d="M26.5,53.4l4.3-1.7l0.1,0.1L26.5,53.4L26.5,53.4"/>
						<path fill="#B3BDC0" d="M26.6,53.5l4.3-1.7l0,0L26.6,53.5L26.6,53.5"/>
						<path fill="#AFB9BC" d="M26.6,53.5l4.3-1.7l0,0L26.6,53.5L26.6,53.5"/>
						<path fill="#ABB5B8" d="M26.7,53.5l4.3-1.7l0,0L26.7,53.5L26.7,53.5"/>
						<path fill="#A8B1B4" d="M26.7,53.6l4.3-1.7l0,0L26.7,53.6L26.7,53.6"/>
						<polyline fill="#A4ADB0" points="26.7,53.6 31.1,51.9 31.1,51.9 26.7,53.6 26.7,53.6 						"/>
					</g>
				</g>
			</g>
		</g>
	</g>
	<polygon fill="#B2BCBE" points="26.7,53.6 31.1,51.9 61.6,68 57.3,69.6 	"/>
	<g>
		<g>
			<g>
				<defs>
					<path id="SVGID_3_" d="M61.8,68l-4.3,1.6c-0.1,0-0.2,0-0.2,0l4.3-1.7C61.6,68,61.7,68,61.8,68z"/>
				</defs>
				<clipPath id="SVGID_4_">
					<use xlink:href="#SVGID_3_"  overflow="visible"/>
				</clipPath>
				<g clip-path="url(#SVGID_4_)">
					<g>
						<path fill="#A4ADB0" d="M57.2,69.6l4.3-1.7l0,0L57.2,69.6L57.2,69.6"/>
						<path fill="#A0A9AC" d="M57.3,69.6l4.3-1.7l0,0L57.3,69.6L57.3,69.6"/>
						<path fill="#9CA5A8" d="M57.3,69.6l4.3-1.7l0,0L57.3,69.6L57.3,69.6"/>
						<path fill="#98A1A4" d="M57.3,69.7l4.3-1.7l0,0L57.3,69.7L57.3,69.7"/>
						<path fill="#949DA0" d="M57.4,69.7l4.3-1.7l0,0L57.4,69.7L57.4,69.7"/>
						<path fill="#91999C" d="M57.4,69.7l4.3-1.7l0,0L57.4,69.7L57.4,69.7"/>
						<polyline fill="#8D9598" points="57.4,69.7 61.8,68 61.8,68 57.4,69.7 57.4,69.7 						"/>
					</g>
				</g>
			</g>
		</g>
	</g>
	<path fill="#EDF7F9" d="M58.7,64.8c2.1,1.1,3.7,4.3,3.7,7.1s-1.8,4.3-3.8,3.2L25.4,57.7c-2.1-1.1-3.7-4.3-3.7-7.1s1.8-4.3,3.8-3.2
		L58.7,64.8z M57.2,69.6c0.2,0.1,0.3-0.1,0.3-0.3c0-0.3-0.1-0.5-0.3-0.7l-30.5-16c-0.2-0.1-0.4,0.1-0.4,0.3c0,0.3,0.1,0.5,0.3,0.7
		L57.2,69.6"/>
	<path fill="#85A7A6" d="M66.7,70L66.7,70c0-0.1,0-0.2,0-0.3s0-0.1,0-0.1s0-0.1,0-0.2s0-0.1,0-0.2v-0.1c0-0.1,0-0.2,0-0.2v-0.2l0,0
		v-0.2c0-0.1,0-0.2-0.1-0.3V68v-0.1c0-0.2-0.1-0.3-0.1-0.4v-0.1v-0.1l-0.2-0.4l-0.1-0.2c-0.1-0.2-0.1-0.3-0.2-0.4v-0.1l0,0
		c-0.1-0.2-0.2-0.4-0.3-0.6v-0.1l-0.5-0.1L65,65.1l-0.1-0.2l-0.2-0.3l-0.1-0.1l0,0c-0.1-0.2-0.3-0.3-0.4-0.4l0,0L64,64l-0.2-0.2l0,0
		l-0.3-0.2l0,0h-0.1l-0.3-0.2H63L29.9,45.8l-0.2-0.1l0,0l-0.3-0.1l0,0l0,0l-0.3-0.1H29h-0.2h-0.4c-0.1,0-0.2,0-0.4,0.1l0,0h-0.1
		l-4.4,1.6l0.2-0.1h0.1h0.1h0.5h0.2h0.1l0.3,0.1h0.1l0.2,0.1l0.3,0.1l33.1,17.4L59,65h0.1l0.4,0.3l0.2,0.2l0.1,0.1
		c0.1,0.1,0.3,0.3,0.4,0.4l0.1,0.1l0.2,0.3l0.1,0.2l0.2,0.3l0.1,0.2c0.1,0.2,0.2,0.4,0.3,0.6v0.1c0.1,0.2,0.1,0.3,0.2,0.4l0.1,0.2
		l0.2,0.4l0.1,0.2c0.1,0.2,0.1,0.3,0.1,0.4l0.1,0.2c0,0.1,0,0.2,0.1,0.3l0.1,0.3v0.2c0,0.1,0,0.2,0.1,0.3s0,0.1,0,0.2s0,0.2,0,0.3
		s0,0.1,0,0.2s0,0.3,0,0.4s0,0.4,0,0.6v0.1c0,0.1,0,0.3-0.1,0.4v0.2c0,0.1-0.1,0.2-0.1,0.3S62,73.6,62,73.7s-0.1,0.2-0.1,0.3l0,0
		c-0.1,0.1-0.1,0.2-0.2,0.4v0.1c-0.1,0.1-0.2,0.2-0.2,0.3l0,0c-0.1,0.1-0.2,0.2-0.3,0.2l0,0c-0.1,0.1-0.2,0.1-0.3,0.2l4.3-1.7
		c0.1,0,0.1,0,0.2,0l0,0c0.1-0.1,0.2-0.1,0.3-0.2l0,0c0.1-0.1,0.2-0.2,0.2-0.3l0,0c0.1-0.1,0.3-0.3,0.4-0.5l0,0l0.1-0.2v-0.1
		c0-0.1,0.1-0.2,0.1-0.3v-0.1c0,0,0-0.1,0-0.2v-0.2v-0.1c0-0.1,0-0.2,0-0.3v-0.1l0,0c0-0.1,0-0.3,0-0.4c0-0.2,0-0.1,0-0.1
		S66.7,70.1,66.7,70z"/>
</g>
<polygon fill="#4D4D4E" points="57.3,69.4 30.6,80.9 0,64.5 0,64.2 57.4,69 "/>
<g>
	<g>
		<g>
			<defs>
				<polygon id="SVGID_5_" points="0,64.2 26.7,52.7 57.4,69 30.7,80.5 				"/>
			</defs>
			<clipPath id="SVGID_6_">
				<use xlink:href="#SVGID_5_"  overflow="visible"/>
			</clipPath>
			<g clip-path="url(#SVGID_6_)">
				<path fill="#333333" d="M6.5,66.4L8,65.7l1.9,1l-1.5,0.7L6.5,66.4 M14.9,70.6l1.5-0.7l1.9,1l-1.5,0.7L14.9,70.6 M13.3,67.9
					l1.5-0.7l1.9,1l-1.5,0.7L13.3,67.9 M5.8,63.9l1.5-0.7l1.9,1l-1.5,0.7L5.8,63.9 M20.9,70.7l1.5-0.7l1.9,1l-1.5,0.7L20.9,70.7
					 M17.3,67.6l1.5-0.7l1.9,1l-1.5,0.6L17.3,67.6 M27.5,72.1l1.5-0.7l1.9,1l-1.5,0.7L27.5,72.1 M9.7,62.2l1.6-0.7l1.9,1l-1.5,0.7
					L9.7,62.2 M24.8,69l1.5-0.7l1.9,1L26.7,70L24.8,69 M21.8,67.2l1.5-0.6l1.9,1l-1.5,0.7L21.8,67.2 M30.6,71.8l1.5-0.7l1.9,1
					l-1.5,0.7L30.6,71.8 M35.4,74.4l1.6-0.8l1.9,1l-1.5,0.7L35.4,74.4 M19,65.1l1.5-0.7l1.9,1l-1.5,0.7L19,65.1 M25,65.8l1.5-0.7
					l1.9,1l-1.5,0.7L25,65.8 M35.8,70.8l1.5-0.7l1.9,1l-1.5,0.7L35.8,70.8 M22.3,63.7l1.5-0.7l1.9,1l-1.5,0.7L22.3,63.7 M30,65.5
					l1.5-0.7l1.9,1l-1.5,0.7L30,65.5 M24.3,60.9l1.5-0.7l1.9,1l-1.5,0.7L24.3,60.9 M27.2,62.4l1.5-0.7l1.9,1l-1.5,0.7L27.2,62.4
					 M33.1,65.1l1.5-0.7l1.9,1L35,66.1L33.1,65.1 M37.9,67.7l1.5-0.7l1.9,1l-1.5,0.7L37.9,67.7 M22.5,58.9l1.5-0.7l1.9,1l-1.5,0.7
					L22.5,58.9 M32.3,62.6l1.5-0.7l1.9,1l-1.5,0.7L32.3,62.6 M40.8,66.6l1.5-0.7l1.9,1l-1.5,0.7L40.8,66.6 M26.4,57.2l1.5-0.7l1.9,1
					l-1.5,0.7L26.4,57.2 M43.9,66.3l1.5-0.7l1.9,1l-1.5,0.7L43.9,66.3 M48.7,68.8l1.6-0.6l1.9,1l-1.5,0.7L48.7,68.8 M33,59.6
					l1.5-0.7l1.9,1l-1.5,0.7L33,59.6 M36.2,61l1.5-0.7l1.9,1L38.1,62L36.2,61 M31.5,57.4l1.5-0.7l1.9,1l-1.5,0.7L31.5,57.4 M57.4,69
					L26.7,52.7L0,64.2l30.7,16.3L57.4,69"/>
				<polyline fill="#FFFFFF" points="29.8,57.5 27.9,56.5 26.4,57.2 28.2,58.2 29.8,57.5 				"/>
				<polyline fill="#FFFFFF" points="25.9,59.2 24,58.2 22.5,58.9 24.3,59.8 25.9,59.2 				"/>
				<polyline fill="#FFFFFF" points="27.7,61.3 25.9,60.3 24.3,60.9 26.2,61.9 27.7,61.3 				"/>
				<polyline fill="#FFFFFF" points="30.6,62.7 28.8,61.7 27.2,62.4 29.1,63.4 30.6,62.7 				"/>
				<polyline fill="#FFFFFF" points="25.7,64 23.9,63 22.3,63.7 24.2,64.7 25.7,64 				"/>
				<polyline fill="#FFFFFF" points="34.9,57.8 33,56.8 31.5,57.4 33.4,58.4 34.9,57.8 				"/>
				<polyline fill="#FFFFFF" points="36.4,59.9 34.5,58.9 33,59.6 34.9,60.6 36.4,59.9 				"/>
				<polyline fill="#FFFFFF" points="39.7,61.3 37.8,60.3 36.2,61 38.1,62 39.7,61.3 				"/>
				<polyline fill="#FFFFFF" points="35.8,63 33.9,62 32.3,62.6 34.2,63.6 35.8,63 				"/>
				<polyline fill="#FFFFFF" points="28.5,66.1 26.6,65.1 25,65.8 26.9,66.8 28.5,66.1 				"/>
				<polyline fill="#FFFFFF" points="52.1,69.2 50.2,68.2 48.7,68.8 50.5,69.8 52.1,69.2 				"/>
				<polyline fill="#FFFFFF" points="47.3,66.6 45.4,65.7 43.9,66.3 45.8,67.3 47.3,66.6 				"/>
				<polyline fill="#FFFFFF" points="44.2,67 42.3,66 40.8,66.7 42.7,67.7 44.2,67 				"/>
				<polyline fill="#FFFFFF" points="41.3,68 39.4,67 37.9,67.7 39.8,68.7 41.3,68 				"/>
				<polyline fill="#FFFFFF" points="39.2,71.2 37.3,70.2 35.8,70.9 37.7,71.8 39.2,71.2 				"/>
				<polyline fill="#FFFFFF" points="36.5,65.5 34.6,64.5 33.1,65.1 35,66.1 36.5,65.5 				"/>
				<polyline fill="#FFFFFF" points="13.1,62.5 11.2,61.5 9.7,62.2 11.6,63.2 13.1,62.5 				"/>
				<polyline fill="#FFFFFF" points="9.2,64.2 7.3,63.2 5.8,63.9 7.7,64.9 9.2,64.2 				"/>
				<polyline fill="#FFFFFF" points="20.7,67.9 18.9,66.9 17.3,67.6 19.2,68.6 20.7,67.9 				"/>
				<polyline fill="#FFFFFF" points="16.7,68.2 14.8,67.2 13.3,67.9 15.2,68.9 16.7,68.2 				"/>
				<polyline fill="#FFFFFF" points="18.3,70.9 16.4,69.9 14.9,70.6 16.8,71.6 18.3,70.9 				"/>
				<polyline fill="#FFFFFF" points="9.9,66.7 8.1,65.7 6.5,66.4 8.4,67.4 9.9,66.7 				"/>
				<polyline fill="#FFFFFF" points="33.4,65.8 31.5,64.8 30,65.5 31.9,66.5 33.4,65.8 				"/>
				<polyline fill="#FFFFFF" points="22.4,65.4 20.5,64.4 19,65.1 20.9,66.1 22.4,65.4 				"/>
				<polyline fill="#FFFFFF" points="25.1,67.6 23.2,66.6 21.7,67.2 23.6,68.2 25.1,67.6 				"/>
				<polyline fill="#FFFFFF" points="28.1,69.4 26.3,68.4 24.8,69 26.6,70 28.1,69.4 				"/>
				<polyline fill="#FFFFFF" points="24.3,71 22.4,70.1 20.9,70.7 22.7,71.7 24.3,71 				"/>
				<polyline fill="#FFFFFF" points="38.8,74.7 36.9,73.7 35.4,74.3 37.3,75.3 38.8,74.7 				"/>
				<polyline fill="#FFFFFF" points="34,72.1 32.2,71.1 30.6,71.8 32.5,72.8 34,72.1 				"/>
				<polyline fill="#FFFFFF" points="30.9,72.5 29,71.5 27.5,72.1 29.4,73.1 30.9,72.5 				"/>
			</g>
		</g>
	</g>
</g>
<polygon id="_Path_" fill="#FFFFFF" points="71.1,30.1 79.3,27.6 87.4,30.1 87.4,35.3 79.3,37.9 71.1,35.3 "/>
<polygon id="_Path_2" fill="#FFFFFF" points="75.1,24.6 70.2,23 65.2,24.6 65.2,27.7 70.2,29.3 75.1,27.7 "/>
<polygon id="_Path_3" fill="#FFFFFF" points="69.3,30.1 65.5,28.9 61.8,30.1 61.8,32.5 65.5,33.7 69.3,32.5 "/>
<polygon id="_Path_4" fill="#FFFFFF" points="63.4,24.6 60.6,23.7 57.8,24.6 57.8,26.3 60.6,27.2 63.4,26.3 "/>
</svg>
